<svg width="14" height="14" viewBox="0 0 14 14" fill="none" xmlns="http://www.w3.org/2000/svg">
<path id="Shape" fill-rule="evenodd" clip-rule="evenodd" d="M0.616117 0.616117C1.10427 0.127961 1.89573 0.127961 2.38388 0.616117L7 5.23223L11.6161 0.616117C12.1043 0.127961 12.8957 0.127961 13.3839 0.616117C13.872 1.10427 13.872 1.89573 13.3839 2.38388L8.76777 7L13.3839 11.6161C13.872 12.1043 13.872 12.8957 13.3839 13.3839C12.8957 13.872 12.1043 13.872 11.6161 13.3839L7 8.76777L2.38388 13.3839C1.89573 13.872 1.10427 13.872 0.616117 13.3839C0.127961 12.8957 0.127961 12.1043 0.616117 11.6161L5.23223 7L0.616117 2.38388C0.127961 1.89573 0.127961 1.10427 0.616117 0.616117Z" fill="white"/>
</svg>
