<svg width="61" height="40" viewBox="0 0 61 40" fill="none" xmlns="http://www.w3.org/2000/svg">
<path d="M43.7722 9.21488L47.0963 23.0922C47.4606 24.6132 46.3077 26.075 44.7436 26.075H14.7642C11.9084 26.075 9.35643 24.2917 8.37471 21.6099L8.10242 20.8661C7.95795 20.4714 8.2501 20.0533 8.67037 20.0533H28.2492C28.4811 20.0533 28.669 19.8654 28.669 19.6335C28.669 17.8946 27.2594 16.4849 25.5204 16.4849H11.2535C8.3977 16.4849 5.84578 14.7016 4.86405 12.0198L4.61898 11.3503C4.4745 10.9557 4.76666 10.5376 5.18693 10.5376H23.7887C24.0206 10.5376 24.2085 10.3496 24.2085 10.1178C24.2085 8.37886 22.7989 6.96919 21.0599 6.96919H7.77009C4.91426 6.96919 2.36234 5.18584 1.38061 2.50405L1.16275 1.90892C1.01828 1.51426 1.31043 1.09619 1.7307 1.09619H33.4792C38.3749 1.09619 42.6318 4.45381 43.7722 9.21488Z" fill="url(#paint0_linear_6285_12000)"/>
<path d="M55.542 13.3453L60.2039 33.3662C60.5571 34.8834 59.4054 36.3341 57.8476 36.3341H26.5788C23.6172 36.3341 20.9958 34.4185 20.0962 31.5968L19.7793 30.6031C19.5928 30.0179 20.0295 29.4203 20.6437 29.4203H49.1965C50.7629 29.4203 51.9164 27.9543 51.5478 26.4318L47.3771 9.20492C47.2389 8.63399 47.6715 8.08423 48.2589 8.08423H48.9151C52.0785 8.08423 54.8246 10.2644 55.542 13.3453Z" fill="url(#paint1_linear_6285_12000)"/>
<defs>
<linearGradient id="paint0_linear_6285_12000" x1="24.1342" y1="1.09619" x2="24.1342" y2="26.075" gradientUnits="userSpaceOnUse">
<stop stop-color="#FFC803"/>
<stop offset="1" stop-color="#FFA903"/>
</linearGradient>
<linearGradient id="paint1_linear_6285_12000" x1="39.9448" y1="8.08423" x2="39.9448" y2="36.3341" gradientUnits="userSpaceOnUse">
<stop stop-color="#FF7421"/>
<stop offset="1" stop-color="#EC5901"/>
</linearGradient>
</defs>
</svg>
