<svg width="28" height="28" viewBox="0 0 28 28" fill="none" xmlns="http://www.w3.org/2000/svg">
<path d="M14 1.16669C12.9875 1.16669 12.1666 1.9875 12.1666 3.00002V10.3334C12.1666 10.8196 12.3598 11.2859 12.7036 11.6297C13.0474 11.9735 13.5137 12.1667 14 12.1667C14.4862 12.1667 14.9525 11.9735 15.2963 11.6297C15.6402 11.2859 15.8333 10.8196 15.8333 10.3334V3.00002C15.8333 1.9875 15.0125 1.16669 14 1.16669ZM10.3333 5.07505C7.1754 5.89272 4.83331 8.7576 4.83331 12.1667V15.8334C4.83331 19.2424 7.1754 22.1073 10.3333 22.925V18.9898C9.24248 18.3536 8.49998 17.1845 8.49998 15.8334V12.1667C8.49998 10.8155 9.24248 9.64644 10.3333 9.01027V5.07505ZM17.6666 5.07505V9.01027C18.7575 9.64644 19.5 10.8155 19.5 12.1667V15.8334C19.5 17.1845 18.7575 18.3536 17.6666 18.9898V22.925C20.8246 22.1073 23.1666 19.2434 23.1666 15.8334V12.1667C23.1666 8.7576 20.8246 5.89272 17.6666 5.07505ZM14 15.8334C13.5137 15.8334 13.0474 16.0265 12.7036 16.3703C12.3598 16.7141 12.1666 17.1805 12.1666 17.6667V25C12.1666 26.0125 12.9875 26.8334 14 26.8334C15.0125 26.8334 15.8333 26.0125 15.8333 25V17.6667C15.8333 17.1805 15.6402 16.7141 15.2963 16.3703C14.9525 16.0265 14.4862 15.8334 14 15.8334Z" fill="#998728"/>
</svg>
